<svg xmlns="http://www.w3.org/2000/svg" xmlns:xlink="http://www.w3.org/1999/xlink" contentStyleType="text/css" height="208px" preserveAspectRatio="none" style="width:458px;height:208px;background:#FFFFFF;" version="1.1" viewBox="0 0 458 208" width="458px" zoomAndPan="magnify"><defs/><g><line style="stroke:#181818;stroke-width:0.5;stroke-dasharray:5.0,5.0;" x1="31" x2="31" y1="36.29" y2="172.7959"/><line style="stroke:#181818;stroke-width:0.5;stroke-dasharray:5.0,5.0;" x1="272.29" x2="272.29" y1="36.29" y2="172.7959"/><line style="stroke:#181818;stroke-width:0.5;stroke-dasharray:5.0,5.0;" x1="412.9805" x2="412.9805" y1="36.29" y2="172.7959"/><rect fill="#E2E2F0" height="30.29" rx="2.5" ry="2.5" style="stroke:#181818;stroke-width:0.5;" width="53.5049" x="5" y="5"/><text fill="#000000" font-family="sans-serif" font-size="14" lengthAdjust="spacing" textLength="39.5049" x="12" y="25.3027">Client</text><rect fill="#E2E2F0" height="30.29" rx="2.5" ry="2.5" style="stroke:#181818;stroke-width:0.5;" width="53.5049" x="5" y="171.7959"/><text fill="#000000" font-family="sans-serif" font-size="14" lengthAdjust="spacing" textLength="39.5049" x="12" y="192.0986">Client</text><rect fill="#E2E2F0" height="30.29" rx="2.5" ry="2.5" style="stroke:#181818;stroke-width:0.5;" width="65.3584" x="240.29" y="5"/><text fill="#000000" font-family="sans-serif" font-size="14" lengthAdjust="spacing" textLength="51.3584" x="247.29" y="25.3027">Primary</text><rect fill="#E2E2F0" height="30.29" rx="2.5" ry="2.5" style="stroke:#181818;stroke-width:0.5;" width="65.3584" x="240.29" y="171.7959"/><text fill="#000000" font-family="sans-serif" font-size="14" lengthAdjust="spacing" textLength="51.3584" x="247.29" y="192.0986">Primary</text><rect fill="#E2E2F0" height="30.29" rx="2.5" ry="2.5" style="stroke:#181818;stroke-width:0.5;" width="78.251" x="373.9805" y="5"/><text fill="#000000" font-family="sans-serif" font-size="14" lengthAdjust="spacing" textLength="64.251" x="380.9805" y="25.3027">Followers</text><rect fill="#E2E2F0" height="30.29" rx="2.5" ry="2.5" style="stroke:#181818;stroke-width:0.5;" width="78.251" x="373.9805" y="171.7959"/><text fill="#000000" font-family="sans-serif" font-size="14" lengthAdjust="spacing" textLength="64.251" x="380.9805" y="192.0986">Followers</text><polygon fill="#181818" points="260.9692,63.4165,270.9692,67.4165,260.9692,71.4165,264.9692,67.4165" style="stroke:#181818;stroke-width:1.0;"/><line style="stroke:#181818;stroke-width:1.0;" x1="31.7524" x2="266.9692" y1="67.4165" y2="67.4165"/><text fill="#000000" font-family="sans-serif" font-size="13" lengthAdjust="spacing" textLength="83.9604" x="38.7524" y="62.6426">Write request</text><polygon fill="#181818" points="401.106,92.543,411.106,96.543,401.106,100.543,405.106,96.543" style="stroke:#181818;stroke-width:1.0;"/><line style="stroke:#181818;stroke-width:1.0;" x1="272.9692" x2="407.106" y1="96.543" y2="96.543"/><text fill="#000000" font-family="sans-serif" font-size="13" lengthAdjust="spacing" textLength="91.749" x="279.9692" y="91.769">AppendEntries</text><polygon fill="#181818" points="283.9692,121.6694,273.9692,125.6694,283.9692,129.6694,279.9692,125.6694" style="stroke:#181818;stroke-width:1.0;"/><line style="stroke:#181818;stroke-width:1.0;" x1="277.9692" x2="412.106" y1="125.6694" y2="125.6694"/><text fill="#000000" font-family="sans-serif" font-size="13" lengthAdjust="spacing" textLength="116.1367" x="289.9692" y="120.8955">Acknowledgement</text><polygon fill="#181818" points="42.7524,150.7959,32.7524,154.7959,42.7524,158.7959,38.7524,154.7959" style="stroke:#181818;stroke-width:1.0;"/><line style="stroke:#181818;stroke-width:1.0;" x1="36.7524" x2="271.9692" y1="154.7959" y2="154.7959"/><text fill="#000000" font-family="sans-serif" font-size="13" lengthAdjust="spacing" textLength="217.2168" x="48.7524" y="150.022">Success (once quorum committed)</text><!--SRC=[LOqn2i9044Nxd69ABRp05a88MWiMrhBxaSMTcMHsbf3Rgq62jlzztXjAXZWTZdInp7TR0jqiEyWmDLJlllFdSTPIT8RLGFquGj99t39gju4_Jn-VedD1Ue3VZL_Ji5O3NLkCg9LsAX4qDRN659KvkoFjNm00]--></g></svg>