<svg xmlns="http://www.w3.org/2000/svg" xmlns:xlink="http://www.w3.org/1999/xlink" contentStyleType="text/css" height="1038px" preserveAspectRatio="none" style="width:1019px;height:1038px;background:#FFFFFF;" version="1.1" viewBox="0 0 1019 1038" width="1019px" zoomAndPan="magnify"><defs/><g><line style="stroke:#181818;stroke-width:0.5;stroke-dasharray:5.0,5.0;" x1="27" x2="27" y1="81.29" y2="957.7046"/><line style="stroke:#181818;stroke-width:0.5;stroke-dasharray:5.0,5.0;" x1="210.5063" x2="210.5063" y1="81.29" y2="957.7046"/><line style="stroke:#181818;stroke-width:0.5;stroke-dasharray:5.0,5.0;" x1="444.7378" x2="444.7378" y1="81.29" y2="957.7046"/><line style="stroke:#181818;stroke-width:0.5;stroke-dasharray:5.0,5.0;" x1="658.5518" x2="658.5518" y1="81.29" y2="957.7046"/><line style="stroke:#181818;stroke-width:0.5;stroke-dasharray:5.0,5.0;" x1="750.2939" x2="750.2939" y1="81.29" y2="957.7046"/><line style="stroke:#181818;stroke-width:0.5;stroke-dasharray:5.0,5.0;" x1="851.876" x2="851.876" y1="81.29" y2="957.7046"/><line style="stroke:#181818;stroke-width:0.5;stroke-dasharray:5.0,5.0;" x1="958.8418" x2="958.8418" y1="81.29" y2="957.7046"/><text fill="#000000" font-family="sans-serif" font-size="14" lengthAdjust="spacing" textLength="39.5049" x="5" y="78.3027">Client</text><ellipse cx="27.7524" cy="13.5" fill="#E2E2F0" rx="8" ry="8" style="stroke:#181818;stroke-width:0.5;"/><path d="M27.7524,21.5 L27.7524,48.5 M14.7524,29.5 L40.7524,29.5 M27.7524,48.5 L14.7524,63.5 M27.7524,48.5 L40.7524,63.5 " fill="none" style="stroke:#181818;stroke-width:0.5;"/><text fill="#000000" font-family="sans-serif" font-size="14" lengthAdjust="spacing" textLength="39.5049" x="5" y="970.0073">Client</text><ellipse cx="27.7524" cy="981.4946" fill="#E2E2F0" rx="8" ry="8" style="stroke:#181818;stroke-width:0.5;"/><path d="M27.7524,989.4946 L27.7524,1016.4946 M14.7524,997.4946 L40.7524,997.4946 M27.7524,1016.4946 L14.7524,1031.4946 M27.7524,1016.4946 L40.7524,1031.4946 " fill="none" style="stroke:#181818;stroke-width:0.5;"/><rect fill="#E2E2F0" height="30.29" rx="2.5" ry="2.5" style="stroke:#181818;stroke-width:0.5;" width="165.3477" x="128.5063" y="50"/><text fill="#000000" font-family="sans-serif" font-size="14" lengthAdjust="spacing" textLength="151.3477" x="135.5063" y="70.3027">Primary (self-removal)</text><rect fill="#E2E2F0" height="30.29" rx="2.5" ry="2.5" style="stroke:#181818;stroke-width:0.5;" width="165.3477" x="128.5063" y="956.7046"/><text fill="#000000" font-family="sans-serif" font-size="14" lengthAdjust="spacing" textLength="151.3477" x="135.5063" y="977.0073">Primary (self-removal)</text><rect fill="#E2E2F0" height="30.29" rx="2.5" ry="2.5" style="stroke:#181818;stroke-width:0.5;" width="75.7422" x="407.7378" y="50"/><text fill="#000000" font-family="sans-serif" font-size="14" lengthAdjust="spacing" textLength="61.7422" x="414.7378" y="70.3027">Replica 1</text><rect fill="#E2E2F0" height="30.29" rx="2.5" ry="2.5" style="stroke:#181818;stroke-width:0.5;" width="75.7422" x="407.7378" y="956.7046"/><text fill="#000000" font-family="sans-serif" font-size="14" lengthAdjust="spacing" textLength="61.7422" x="414.7378" y="977.0073">Replica 1</text><rect fill="#E2E2F0" height="30.29" rx="2.5" ry="2.5" style="stroke:#181818;stroke-width:0.5;" width="75.7422" x="621.5518" y="50"/><text fill="#000000" font-family="sans-serif" font-size="14" lengthAdjust="spacing" textLength="61.7422" x="628.5518" y="70.3027">Replica 2</text><rect fill="#E2E2F0" height="30.29" rx="2.5" ry="2.5" style="stroke:#181818;stroke-width:0.5;" width="75.7422" x="621.5518" y="956.7046"/><text fill="#000000" font-family="sans-serif" font-size="14" lengthAdjust="spacing" textLength="61.7422" x="628.5518" y="977.0073">Replica 2</text><text fill="#000000" font-family="sans-serif" font-size="14" lengthAdjust="spacing" textLength="80.582" x="707.2939" y="78.3027">Primary Log</text><path d="M732.585,29 C732.585,19 750.585,19 750.585,19 C750.585,19 768.585,19 768.585,29 L768.585,55 C768.585,65 750.585,65 750.585,65 C750.585,65 732.585,65 732.585,55 L732.585,29 " fill="#E2E2F0" style="stroke:#181818;stroke-width:1.5;"/><path d="M732.585,29 C732.585,39 750.585,39 750.585,39 C750.585,39 768.585,39 768.585,29 " fill="none" style="stroke:#181818;stroke-width:1.5;"/><text fill="#000000" font-family="sans-serif" font-size="14" lengthAdjust="spacing" textLength="80.582" x="707.2939" y="970.0073">Primary Log</text><path d="M732.585,982.9946 C732.585,972.9946 750.585,972.9946 750.585,972.9946 C750.585,972.9946 768.585,972.9946 768.585,982.9946 L768.585,1008.9946 C768.585,1018.9946 750.585,1018.9946 750.585,1018.9946 C750.585,1018.9946 732.585,1018.9946 732.585,1008.9946 L732.585,982.9946 " fill="#E2E2F0" style="stroke:#181818;stroke-width:1.5;"/><path d="M732.585,982.9946 C732.585,992.9946 750.585,992.9946 750.585,992.9946 C750.585,992.9946 768.585,992.9946 768.585,982.9946 " fill="none" style="stroke:#181818;stroke-width:1.5;"/><text fill="#000000" font-family="sans-serif" font-size="14" lengthAdjust="spacing" textLength="90.9658" x="803.876" y="78.3027">Replica 1 Log</text><path d="M834.3589,29 C834.3589,19 852.3589,19 852.3589,19 C852.3589,19 870.3589,19 870.3589,29 L870.3589,55 C870.3589,65 852.3589,65 852.3589,65 C852.3589,65 834.3589,65 834.3589,55 L834.3589,29 " fill="#E2E2F0" style="stroke:#181818;stroke-width:1.5;"/><path d="M834.3589,29 C834.3589,39 852.3589,39 852.3589,39 C852.3589,39 870.3589,39 870.3589,29 " fill="none" style="stroke:#181818;stroke-width:1.5;"/><text fill="#000000" font-family="sans-serif" font-size="14" lengthAdjust="spacing" textLength="90.9658" x="803.876" y="970.0073">Replica 1 Log</text><path d="M834.3589,982.9946 C834.3589,972.9946 852.3589,972.9946 852.3589,972.9946 C852.3589,972.9946 870.3589,972.9946 870.3589,982.9946 L870.3589,1008.9946 C870.3589,1018.9946 852.3589,1018.9946 852.3589,1018.9946 C852.3589,1018.9946 834.3589,1018.9946 834.3589,1008.9946 L834.3589,982.9946 " fill="#E2E2F0" style="stroke:#181818;stroke-width:1.5;"/><path d="M834.3589,982.9946 C834.3589,992.9946 852.3589,992.9946 852.3589,992.9946 C852.3589,992.9946 870.3589,992.9946 870.3589,982.9946 " fill="none" style="stroke:#181818;stroke-width:1.5;"/><text fill="#000000" font-family="sans-serif" font-size="14" lengthAdjust="spacing" textLength="90.9658" x="910.8418" y="78.3027">Replica 2 Log</text><path d="M941.3247,29 C941.3247,19 959.3247,19 959.3247,19 C959.3247,19 977.3247,19 977.3247,29 L977.3247,55 C977.3247,65 959.3247,65 959.3247,65 C959.3247,65 941.3247,65 941.3247,55 L941.3247,29 " fill="#E2E2F0" style="stroke:#181818;stroke-width:1.5;"/><path d="M941.3247,29 C941.3247,39 959.3247,39 959.3247,39 C959.3247,39 977.3247,39 977.3247,29 " fill="none" style="stroke:#181818;stroke-width:1.5;"/><text fill="#000000" font-family="sans-serif" font-size="14" lengthAdjust="spacing" textLength="90.9658" x="910.8418" y="970.0073">Replica 2 Log</text><path d="M941.3247,982.9946 C941.3247,972.9946 959.3247,972.9946 959.3247,972.9946 C959.3247,972.9946 977.3247,972.9946 977.3247,982.9946 L977.3247,1008.9946 C977.3247,1018.9946 959.3247,1018.9946 959.3247,1018.9946 C959.3247,1018.9946 941.3247,1018.9946 941.3247,1008.9946 L941.3247,982.9946 " fill="#E2E2F0" style="stroke:#181818;stroke-width:1.5;"/><path d="M941.3247,982.9946 C941.3247,992.9946 959.3247,992.9946 959.3247,992.9946 C959.3247,992.9946 977.3247,992.9946 977.3247,982.9946 " fill="none" style="stroke:#181818;stroke-width:1.5;"/><rect fill="#EEEEEE" height="3" style="stroke:#EEEEEE;stroke-width:1.0;" width="1012.8076" x="0" y="111.8533"/><line style="stroke:#000000;stroke-width:1.0;" x1="0" x2="1012.8076" y1="111.8533" y2="111.8533"/><line style="stroke:#000000;stroke-width:1.0;" x1="0" x2="1012.8076" y1="114.8533" y2="114.8533"/><rect fill="#EEEEEE" height="23.1265" style="stroke:#000000;stroke-width:2.0;" width="166.585" x="423.1113" y="101.29"/><text fill="#000000" font-family="sans-serif" font-size="13" font-weight="bold" lengthAdjust="spacing" textLength="148.3003" x="429.1113" y="117.6743">Self-Removal Request</text><polygon fill="#181818" points="199.1802,151.543,209.1802,155.543,199.1802,159.543,203.1802,155.543" style="stroke:#181818;stroke-width:1.0;"/><line style="stroke:#181818;stroke-width:1.0;" x1="27.7524" x2="205.1802" y1="155.543" y2="155.543"/><text fill="#000000" font-family="sans-serif" font-size="13" lengthAdjust="spacing" textLength="159.4277" x="34.7524" y="150.769">CLUSTER REMOVENODE P</text><path d="M104,168.543 L104,208.543 L317,208.543 L317,178.543 L307,168.543 L104,168.543 " fill="#FEFFDD" style="stroke:#181818;stroke-width:0.5;"/><path d="M307,168.543 L307,178.543 L317,178.543 L307,168.543 " fill="#FEFFDD" style="stroke:#181818;stroke-width:0.5;"/><text fill="#000000" font-family="sans-serif" font-size="13" lengthAdjust="spacing" textLength="192.0801" x="110" y="185.8955">Detected self-removal request</text><text fill="#000000" font-family="sans-serif" font-size="13" lengthAdjust="spacing" textLength="162.1572" x="110" y="201.022">and current role = Leader</text><rect fill="#EEEEEE" height="3" style="stroke:#EEEEEE;stroke-width:1.0;" width="1012.8076" x="0" y="234.3591"/><line style="stroke:#000000;stroke-width:1.0;" x1="0" x2="1012.8076" y1="234.3591" y2="234.3591"/><line style="stroke:#000000;stroke-width:1.0;" x1="0" x2="1012.8076" y1="237.3591" y2="237.3591"/><rect fill="#EEEEEE" height="23.1265" style="stroke:#000000;stroke-width:2.0;" width="227.9097" x="392.449" y="223.7959"/><text fill="#000000" font-family="sans-serif" font-size="13" font-weight="bold" lengthAdjust="spacing" textLength="209.625" x="398.449" y="240.1802">Phase 1: Controlled Step-Down</text><line style="stroke:#181818;stroke-width:1.0;" x1="211.1802" x2="253.1802" y1="278.0488" y2="278.0488"/><line style="stroke:#181818;stroke-width:1.0;" x1="253.1802" x2="253.1802" y1="278.0488" y2="291.0488"/><line style="stroke:#181818;stroke-width:1.0;" x1="212.1802" x2="253.1802" y1="291.0488" y2="291.0488"/><polygon fill="#181818" points="222.1802,287.0488,212.1802,291.0488,222.1802,295.0488,218.1802,291.0488" style="stroke:#181818;stroke-width:1.0;"/><text fill="#000000" font-family="sans-serif" font-size="13" lengthAdjust="spacing" textLength="143.3174" x="218.1802" y="273.2749">Block new client writes</text><polygon fill="#181818" points="433.6089,316.1753,443.6089,320.1753,433.6089,324.1753,437.6089,320.1753" style="stroke:#181818;stroke-width:1.0;"/><line style="stroke:#181818;stroke-width:1.0;" x1="211.1802" x2="439.6089" y1="320.1753" y2="320.1753"/><text fill="#000000" font-family="sans-serif" font-size="13" lengthAdjust="spacing" textLength="191.2358" x="218.1802" y="315.4014">AppendEntries (final log flush)</text><polygon fill="#181818" points="647.4229,345.3018,657.4229,349.3018,647.4229,353.3018,651.4229,349.3018" style="stroke:#181818;stroke-width:1.0;"/><line style="stroke:#181818;stroke-width:1.0;" x1="211.1802" x2="653.4229" y1="349.3018" y2="349.3018"/><text fill="#000000" font-family="sans-serif" font-size="13" lengthAdjust="spacing" textLength="191.2358" x="218.1802" y="344.5278">AppendEntries (final log flush)</text><polygon fill="#181818" points="222.1802,374.4282,212.1802,378.4282,222.1802,382.4282,218.1802,378.4282" style="stroke:#181818;stroke-width:1.0;"/><line style="stroke:#181818;stroke-width:1.0;stroke-dasharray:2.0,2.0;" x1="216.1802" x2="444.6089" y1="378.4282" y2="378.4282"/><text fill="#000000" font-family="sans-serif" font-size="13" lengthAdjust="spacing" textLength="23.2261" x="228.1802" y="373.6543">Ack</text><polygon fill="#181818" points="222.1802,403.5547,212.1802,407.5547,222.1802,411.5547,218.1802,407.5547" style="stroke:#181818;stroke-width:1.0;"/><line style="stroke:#181818;stroke-width:1.0;stroke-dasharray:2.0,2.0;" x1="216.1802" x2="658.4229" y1="407.5547" y2="407.5547"/><text fill="#000000" font-family="sans-serif" font-size="13" lengthAdjust="spacing" textLength="23.2261" x="228.1802" y="402.7808">Ack</text><line style="stroke:#181818;stroke-width:1.0;" x1="211.1802" x2="253.1802" y1="451.8076" y2="451.8076"/><line style="stroke:#181818;stroke-width:1.0;" x1="253.1802" x2="253.1802" y1="451.8076" y2="464.8076"/><line style="stroke:#181818;stroke-width:1.0;" x1="212.1802" x2="253.1802" y1="464.8076" y2="464.8076"/><polygon fill="#181818" points="222.1802,460.8076,212.1802,464.8076,222.1802,468.8076,218.1802,464.8076" style="stroke:#181818;stroke-width:1.0;"/><text fill="#000000" font-family="sans-serif" font-size="13" lengthAdjust="spacing" textLength="220.4287" x="218.1802" y="431.9072">Set state=follower, increment term</text><text fill="#000000" font-family="sans-serif" font-size="13" lengthAdjust="spacing" textLength="145.8374" x="218.1802" y="447.0337">(new election will start)</text><path d="M153,477.8076 L153,502.8076 L716,502.8076 L716,487.8076 L706,477.8076 L153,477.8076 " fill="#FEFFDD" style="stroke:#181818;stroke-width:0.5;"/><path d="M706,477.8076 L706,487.8076 L716,487.8076 L706,477.8076 " fill="#FEFFDD" style="stroke:#181818;stroke-width:0.5;"/><text fill="#000000" font-family="sans-serif" font-size="13" lengthAdjust="spacing" textLength="188.5063" x="336.1406" y="495.1602">Leader steps down voluntarily</text><rect fill="#EEEEEE" height="3" style="stroke:#EEEEEE;stroke-width:1.0;" width="1012.8076" x="0" y="528.4973"/><line style="stroke:#000000;stroke-width:1.0;" x1="0" x2="1012.8076" y1="528.4973" y2="528.4973"/><line style="stroke:#000000;stroke-width:1.0;" x1="0" x2="1012.8076" y1="531.4973" y2="531.4973"/><rect fill="#EEEEEE" height="23.1265" style="stroke:#000000;stroke-width:2.0;" width="163.7793" x="424.5142" y="517.9341"/><text fill="#000000" font-family="sans-serif" font-size="13" font-weight="bold" lengthAdjust="spacing" textLength="145.4946" x="430.5142" y="534.3184">Phase 2: New Election</text><line style="stroke:#181818;stroke-width:1.0;" x1="445.6089" x2="487.6089" y1="572.187" y2="572.187"/><line style="stroke:#181818;stroke-width:1.0;" x1="487.6089" x2="487.6089" y1="572.187" y2="585.187"/><line style="stroke:#181818;stroke-width:1.0;" x1="446.6089" x2="487.6089" y1="585.187" y2="585.187"/><polygon fill="#181818" points="456.6089,581.187,446.6089,585.187,456.6089,589.187,452.6089,585.187" style="stroke:#181818;stroke-width:1.0;"/><text fill="#000000" font-family="sans-serif" font-size="13" lengthAdjust="spacing" textLength="143.5967" x="452.6089" y="567.4131">Start election (term+1)</text><polygon fill="#181818" points="647.4229,610.3135,657.4229,614.3135,647.4229,618.3135,651.4229,614.3135" style="stroke:#181818;stroke-width:1.0;"/><line style="stroke:#181818;stroke-width:1.0;" x1="445.6089" x2="653.4229" y1="614.3135" y2="614.3135"/><text fill="#000000" font-family="sans-serif" font-size="13" lengthAdjust="spacing" textLength="135.605" x="452.6089" y="609.5396">RequestVote(term+1)</text><polygon fill="#181818" points="456.6089,639.4399,446.6089,643.4399,456.6089,647.4399,452.6089,643.4399" style="stroke:#181818;stroke-width:1.0;"/><line style="stroke:#181818;stroke-width:1.0;stroke-dasharray:2.0,2.0;" x1="450.6089" x2="658.4229" y1="643.4399" y2="643.4399"/><text fill="#000000" font-family="sans-serif" font-size="13" lengthAdjust="spacing" textLength="78.8379" x="462.6089" y="638.666">VoteGranted</text><line style="stroke:#181818;stroke-width:1.0;" x1="445.6089" x2="487.6089" y1="672.5664" y2="672.5664"/><line style="stroke:#181818;stroke-width:1.0;" x1="487.6089" x2="487.6089" y1="672.5664" y2="685.5664"/><line style="stroke:#181818;stroke-width:1.0;" x1="446.6089" x2="487.6089" y1="685.5664" y2="685.5664"/><polygon fill="#181818" points="456.6089,681.5664,446.6089,685.5664,456.6089,689.5664,452.6089,685.5664" style="stroke:#181818;stroke-width:1.0;"/><text fill="#000000" font-family="sans-serif" font-size="13" lengthAdjust="spacing" textLength="121.2212" x="452.6089" y="667.7925">Become new leader</text><rect fill="#EEEEEE" height="3" style="stroke:#EEEEEE;stroke-width:1.0;" width="1012.8076" x="0" y="714.1296"/><line style="stroke:#000000;stroke-width:1.0;" x1="0" x2="1012.8076" y1="714.1296" y2="714.1296"/><line style="stroke:#000000;stroke-width:1.0;" x1="0" x2="1012.8076" y1="717.1296" y2="717.1296"/><rect fill="#EEEEEE" height="23.1265" style="stroke:#000000;stroke-width:2.0;" width="215.1128" x="398.8474" y="703.5664"/><text fill="#000000" font-family="sans-serif" font-size="13" font-weight="bold" lengthAdjust="spacing" textLength="196.8281" x="404.8474" y="719.9507">Phase 3: Membership Change</text><polygon fill="#181818" points="840.3589,768.9458,850.3589,772.9458,840.3589,776.9458,844.3589,772.9458" style="stroke:#181818;stroke-width:1.0;"/><line style="stroke:#181818;stroke-width:1.0;" x1="445.6089" x2="846.3589" y1="772.9458" y2="772.9458"/><text fill="#000000" font-family="sans-serif" font-size="13" lengthAdjust="spacing" textLength="143.4316" x="452.6089" y="753.0454">Propose config change</text><text fill="#000000" font-family="sans-serif" font-size="13" lengthAdjust="spacing" textLength="133.4849" x="452.6089" y="768.1719">(remove old leader P)</text><polygon fill="#181818" points="647.4229,798.0723,657.4229,802.0723,647.4229,806.0723,651.4229,802.0723" style="stroke:#181818;stroke-width:1.0;"/><line style="stroke:#181818;stroke-width:1.0;" x1="445.6089" x2="653.4229" y1="802.0723" y2="802.0723"/><text fill="#000000" font-family="sans-serif" font-size="13" lengthAdjust="spacing" textLength="189.814" x="452.6089" y="797.2983">Replicate config-change entry</text><polygon fill="#181818" points="947.3247,827.1987,957.3247,831.1987,947.3247,835.1987,951.3247,831.1987" style="stroke:#181818;stroke-width:1.0;"/><line style="stroke:#181818;stroke-width:1.0;" x1="659.4229" x2="953.3247" y1="831.1987" y2="831.1987"/><text fill="#000000" font-family="sans-serif" font-size="13" lengthAdjust="spacing" textLength="165.0137" x="666.4229" y="826.4248">Write config-change entry</text><polygon fill="#181818" points="456.6089,856.3252,446.6089,860.3252,456.6089,864.3252,452.6089,860.3252" style="stroke:#181818;stroke-width:1.0;"/><line style="stroke:#181818;stroke-width:1.0;stroke-dasharray:2.0,2.0;" x1="450.6089" x2="658.4229" y1="860.3252" y2="860.3252"/><text fill="#000000" font-family="sans-serif" font-size="13" lengthAdjust="spacing" textLength="23.2261" x="462.6089" y="855.5513">Ack</text><polygon fill="#181818" points="840.3589,885.4517,850.3589,889.4517,840.3589,893.4517,844.3589,889.4517" style="stroke:#181818;stroke-width:1.0;"/><line style="stroke:#181818;stroke-width:1.0;" x1="445.6089" x2="846.3589" y1="889.4517" y2="889.4517"/><text fill="#000000" font-family="sans-serif" font-size="13" lengthAdjust="spacing" textLength="168.0225" x="452.6089" y="884.6777">Commit new configuration</text><path d="M410,902.4517 L410,942.4517 L694,942.4517 L694,912.4517 L684,902.4517 L410,902.4517 " fill="#FEFFDD" style="stroke:#181818;stroke-width:0.5;"/><path d="M684,902.4517 L684,912.4517 L694,912.4517 L684,902.4517 " fill="#FEFFDD" style="stroke:#181818;stroke-width:0.5;"/><text fill="#000000" font-family="sans-serif" font-size="13" lengthAdjust="spacing" textLength="205.8608" x="444.8477" y="919.8042">New leader R1 committed config</text><text fill="#000000" font-family="sans-serif" font-size="13" lengthAdjust="spacing" textLength="41.8818" x="444.8477" y="934.9307">exclud</text><!--SRC=[XLAnRjim4Dtr5OTCDXeDKZUZAf3OGXV54UWsNRmmrCacGf4gHLdrt_SesfPIfEX8ldVlthqxBfoni5OIjOjQRfqKikNQmLrfPSFj6HOTgZgss9WJLyixu1sKxvaCMoK5XsG4MV8ncWOqZIhk-2llS6fHc4FGBMRWJVK6i-GZF9tmj8YYB8ETDyo2OM3ugyVEGPP5OKg8lqAvWdNnO_SzPy3of-UNVFkyoMaiRHo2EQ7rZ0qw50uhc0S0DkZjDTSLYDvQBscDGiYWG5wX7JsKHsyoeJv6Eu8LwUmSjl763DgRAIy-7fKHRw1n017i3LOwx0BEIE2XRL5NEQb8x61HIqqkb3b0hVhkkBmGq_yJMG9nwFaWtYAMpbzNDpjqq3dkCAl9indGteFKWeRtrXpQPgyNtYmgoaOQ3ODKofTOjvp7T-yTXJm8nRQ3oWz-CghNH9RgF8k9g5lIpA-Q58yt6-RVUUsftyAR-9GihmoglQpuXRfFQ1ZF2_Z_RvPk4QkPx2CAq-0OlFfxRPzNy8JDAzhkA5jO7xa-uDnKiOBIcjOGLHXTomE8aKFPZ6T28QZg8WlbUwlZqRfhOHmAWTArPp9Tm9Tu9FxqL_0FqcsoSO-JfxLf6kd2BOs5lUK-izbUM38kPdkRcdw8xElyfOUolSRVGlNL7m00]--></g></svg>