<svg xmlns="http://www.w3.org/2000/svg" xmlns:xlink="http://www.w3.org/1999/xlink" contentStyleType="text/css" height="867px" preserveAspectRatio="none" style="width:1302px;height:867px;background:#FFFFFF;" version="1.1" viewBox="0 0 1302 867" width="1302px" zoomAndPan="magnify"><defs/><g><line style="stroke:#181818;stroke-width:0.5;stroke-dasharray:5.0,5.0;" x1="27" x2="27" y1="81.29" y2="787.0723"/><line style="stroke:#181818;stroke-width:0.5;stroke-dasharray:5.0,5.0;" x1="219.7559" x2="219.7559" y1="81.29" y2="787.0723"/><line style="stroke:#181818;stroke-width:0.5;stroke-dasharray:5.0,5.0;" x1="433.3779" x2="433.3779" y1="81.29" y2="787.0723"/><line style="stroke:#181818;stroke-width:0.5;stroke-dasharray:5.0,5.0;" x1="519.1201" x2="519.1201" y1="81.29" y2="787.0723"/><line style="stroke:#181818;stroke-width:0.5;stroke-dasharray:5.0,5.0;" x1="660.8623" x2="660.8623" y1="81.29" y2="787.0723"/><line style="stroke:#181818;stroke-width:0.5;stroke-dasharray:5.0,5.0;" x1="925.9331" x2="925.9331" y1="81.29" y2="787.0723"/><line style="stroke:#181818;stroke-width:0.5;stroke-dasharray:5.0,5.0;" x1="1027.5151" x2="1027.5151" y1="81.29" y2="787.0723"/><line style="stroke:#181818;stroke-width:0.5;stroke-dasharray:5.0,5.0;" x1="1134.481" x2="1134.481" y1="81.29" y2="787.0723"/><line style="stroke:#181818;stroke-width:0.5;stroke-dasharray:5.0,5.0;" x1="1241.4468" x2="1241.4468" y1="81.29" y2="787.0723"/><text fill="#000000" font-family="sans-serif" font-size="14" lengthAdjust="spacing" textLength="39.5049" x="5" y="78.3027">Client</text><ellipse cx="27.7524" cy="13.5" fill="#E2E2F0" rx="8" ry="8" style="stroke:#181818;stroke-width:0.5;"/><path d="M27.7524,21.5 L27.7524,48.5 M14.7524,29.5 L40.7524,29.5 M27.7524,48.5 L14.7524,63.5 M27.7524,48.5 L40.7524,63.5 " fill="none" style="stroke:#181818;stroke-width:0.5;"/><text fill="#000000" font-family="sans-serif" font-size="14" lengthAdjust="spacing" textLength="39.5049" x="5" y="799.375">Client</text><ellipse cx="27.7524" cy="810.8623" fill="#E2E2F0" rx="8" ry="8" style="stroke:#181818;stroke-width:0.5;"/><path d="M27.7524,818.8623 L27.7524,845.8623 M14.7524,826.8623 L40.7524,826.8623 M27.7524,845.8623 L14.7524,860.8623 M27.7524,845.8623 L40.7524,860.8623 " fill="none" style="stroke:#181818;stroke-width:0.5;"/><rect fill="#E2E2F0" height="30.29" rx="2.5" ry="2.5" style="stroke:#181818;stroke-width:0.5;" width="65.3584" x="187.7559" y="50"/><text fill="#000000" font-family="sans-serif" font-size="14" lengthAdjust="spacing" textLength="51.3584" x="194.7559" y="70.3027">Primary</text><rect fill="#E2E2F0" height="30.29" rx="2.5" ry="2.5" style="stroke:#181818;stroke-width:0.5;" width="65.3584" x="187.7559" y="786.0723"/><text fill="#000000" font-family="sans-serif" font-size="14" lengthAdjust="spacing" textLength="51.3584" x="194.7559" y="806.375">Primary</text><rect fill="#E2E2F0" height="30.29" rx="2.5" ry="2.5" style="stroke:#181818;stroke-width:0.5;" width="75.7422" x="396.3779" y="50"/><text fill="#000000" font-family="sans-serif" font-size="14" lengthAdjust="spacing" textLength="61.7422" x="403.3779" y="70.3027">Replica 1</text><rect fill="#E2E2F0" height="30.29" rx="2.5" ry="2.5" style="stroke:#181818;stroke-width:0.5;" width="75.7422" x="396.3779" y="786.0723"/><text fill="#000000" font-family="sans-serif" font-size="14" lengthAdjust="spacing" textLength="61.7422" x="403.3779" y="806.375">Replica 1</text><rect fill="#E2E2F0" height="30.29" rx="2.5" ry="2.5" style="stroke:#181818;stroke-width:0.5;" width="75.7422" x="482.1201" y="50"/><text fill="#000000" font-family="sans-serif" font-size="14" lengthAdjust="spacing" textLength="61.7422" x="489.1201" y="70.3027">Replica 2</text><rect fill="#E2E2F0" height="30.29" rx="2.5" ry="2.5" style="stroke:#181818;stroke-width:0.5;" width="75.7422" x="482.1201" y="786.0723"/><text fill="#000000" font-family="sans-serif" font-size="14" lengthAdjust="spacing" textLength="61.7422" x="489.1201" y="806.375">Replica 2</text><rect fill="#E2E2F0" height="30.29" rx="2.5" ry="2.5" style="stroke:#181818;stroke-width:0.5;" width="187.6396" x="567.8623" y="50"/><text fill="#000000" font-family="sans-serif" font-size="14" lengthAdjust="spacing" textLength="173.6396" x="574.8623" y="70.3027">Replica 3 (to be removed)</text><rect fill="#E2E2F0" height="30.29" rx="2.5" ry="2.5" style="stroke:#181818;stroke-width:0.5;" width="187.6396" x="567.8623" y="786.0723"/><text fill="#000000" font-family="sans-serif" font-size="14" lengthAdjust="spacing" textLength="173.6396" x="574.8623" y="806.375">Replica 3 (to be removed)</text><text fill="#000000" font-family="sans-serif" font-size="14" lengthAdjust="spacing" textLength="80.582" x="882.9331" y="78.3027">Primary Log</text><path d="M908.2241,29 C908.2241,19 926.2241,19 926.2241,19 C926.2241,19 944.2241,19 944.2241,29 L944.2241,55 C944.2241,65 926.2241,65 926.2241,65 C926.2241,65 908.2241,65 908.2241,55 L908.2241,29 " fill="#E2E2F0" style="stroke:#181818;stroke-width:1.5;"/><path d="M908.2241,29 C908.2241,39 926.2241,39 926.2241,39 C926.2241,39 944.2241,39 944.2241,29 " fill="none" style="stroke:#181818;stroke-width:1.5;"/><text fill="#000000" font-family="sans-serif" font-size="14" lengthAdjust="spacing" textLength="80.582" x="882.9331" y="799.375">Primary Log</text><path d="M908.2241,812.3623 C908.2241,802.3623 926.2241,802.3623 926.2241,802.3623 C926.2241,802.3623 944.2241,802.3623 944.2241,812.3623 L944.2241,838.3623 C944.2241,848.3623 926.2241,848.3623 926.2241,848.3623 C926.2241,848.3623 908.2241,848.3623 908.2241,838.3623 L908.2241,812.3623 " fill="#E2E2F0" style="stroke:#181818;stroke-width:1.5;"/><path d="M908.2241,812.3623 C908.2241,822.3623 926.2241,822.3623 926.2241,822.3623 C926.2241,822.3623 944.2241,822.3623 944.2241,812.3623 " fill="none" style="stroke:#181818;stroke-width:1.5;"/><text fill="#000000" font-family="sans-serif" font-size="14" lengthAdjust="spacing" textLength="90.9658" x="979.5151" y="78.3027">Replica 1 Log</text><path d="M1009.998,29 C1009.998,19 1027.998,19 1027.998,19 C1027.998,19 1045.998,19 1045.998,29 L1045.998,55 C1045.998,65 1027.998,65 1027.998,65 C1027.998,65 1009.998,65 1009.998,55 L1009.998,29 " fill="#E2E2F0" style="stroke:#181818;stroke-width:1.5;"/><path d="M1009.998,29 C1009.998,39 1027.998,39 1027.998,39 C1027.998,39 1045.998,39 1045.998,29 " fill="none" style="stroke:#181818;stroke-width:1.5;"/><text fill="#000000" font-family="sans-serif" font-size="14" lengthAdjust="spacing" textLength="90.9658" x="979.5151" y="799.375">Replica 1 Log</text><path d="M1009.998,812.3623 C1009.998,802.3623 1027.998,802.3623 1027.998,802.3623 C1027.998,802.3623 1045.998,802.3623 1045.998,812.3623 L1045.998,838.3623 C1045.998,848.3623 1027.998,848.3623 1027.998,848.3623 C1027.998,848.3623 1009.998,848.3623 1009.998,838.3623 L1009.998,812.3623 " fill="#E2E2F0" style="stroke:#181818;stroke-width:1.5;"/><path d="M1009.998,812.3623 C1009.998,822.3623 1027.998,822.3623 1027.998,822.3623 C1027.998,822.3623 1045.998,822.3623 1045.998,812.3623 " fill="none" style="stroke:#181818;stroke-width:1.5;"/><text fill="#000000" font-family="sans-serif" font-size="14" lengthAdjust="spacing" textLength="90.9658" x="1086.481" y="78.3027">Replica 2 Log</text><path d="M1116.9639,29 C1116.9639,19 1134.9639,19 1134.9639,19 C1134.9639,19 1152.9639,19 1152.9639,29 L1152.9639,55 C1152.9639,65 1134.9639,65 1134.9639,65 C1134.9639,65 1116.9639,65 1116.9639,55 L1116.9639,29 " fill="#E2E2F0" style="stroke:#181818;stroke-width:1.5;"/><path d="M1116.9639,29 C1116.9639,39 1134.9639,39 1134.9639,39 C1134.9639,39 1152.9639,39 1152.9639,29 " fill="none" style="stroke:#181818;stroke-width:1.5;"/><text fill="#000000" font-family="sans-serif" font-size="14" lengthAdjust="spacing" textLength="90.9658" x="1086.481" y="799.375">Replica 2 Log</text><path d="M1116.9639,812.3623 C1116.9639,802.3623 1134.9639,802.3623 1134.9639,802.3623 C1134.9639,802.3623 1152.9639,802.3623 1152.9639,812.3623 L1152.9639,838.3623 C1152.9639,848.3623 1134.9639,848.3623 1134.9639,848.3623 C1134.9639,848.3623 1116.9639,848.3623 1116.9639,838.3623 L1116.9639,812.3623 " fill="#E2E2F0" style="stroke:#181818;stroke-width:1.5;"/><path d="M1116.9639,812.3623 C1116.9639,822.3623 1134.9639,822.3623 1134.9639,822.3623 C1134.9639,822.3623 1152.9639,822.3623 1152.9639,812.3623 " fill="none" style="stroke:#181818;stroke-width:1.5;"/><text fill="#000000" font-family="sans-serif" font-size="14" lengthAdjust="spacing" textLength="90.9658" x="1193.4468" y="78.3027">Replica 3 Log</text><path d="M1223.9297,29 C1223.9297,19 1241.9297,19 1241.9297,19 C1241.9297,19 1259.9297,19 1259.9297,29 L1259.9297,55 C1259.9297,65 1241.9297,65 1241.9297,65 C1241.9297,65 1223.9297,65 1223.9297,55 L1223.9297,29 " fill="#E2E2F0" style="stroke:#181818;stroke-width:1.5;"/><path d="M1223.9297,29 C1223.9297,39 1241.9297,39 1241.9297,39 C1241.9297,39 1259.9297,39 1259.9297,29 " fill="none" style="stroke:#181818;stroke-width:1.5;"/><text fill="#000000" font-family="sans-serif" font-size="14" lengthAdjust="spacing" textLength="90.9658" x="1193.4468" y="799.375">Replica 3 Log</text><path d="M1223.9297,812.3623 C1223.9297,802.3623 1241.9297,802.3623 1241.9297,802.3623 C1241.9297,802.3623 1259.9297,802.3623 1259.9297,812.3623 L1259.9297,838.3623 C1259.9297,848.3623 1241.9297,848.3623 1241.9297,848.3623 C1241.9297,848.3623 1223.9297,848.3623 1223.9297,838.3623 L1223.9297,812.3623 " fill="#E2E2F0" style="stroke:#181818;stroke-width:1.5;"/><path d="M1223.9297,812.3623 C1223.9297,822.3623 1241.9297,822.3623 1241.9297,822.3623 C1241.9297,822.3623 1259.9297,822.3623 1259.9297,812.3623 " fill="none" style="stroke:#181818;stroke-width:1.5;"/><rect fill="#EEEEEE" height="3" style="stroke:#EEEEEE;stroke-width:1.0;" width="1295.4126" x="0" y="111.8533"/><line style="stroke:#000000;stroke-width:1.0;" x1="0" x2="1295.4126" y1="111.8533" y2="111.8533"/><line style="stroke:#000000;stroke-width:1.0;" x1="0" x2="1295.4126" y1="114.8533" y2="114.8533"/><rect fill="#EEEEEE" height="23.1265" style="stroke:#000000;stroke-width:2.0;" width="133.6216" x="580.8955" y="101.29"/><text fill="#000000" font-family="sans-serif" font-size="13" font-weight="bold" lengthAdjust="spacing" textLength="115.3369" x="586.8955" y="117.6743">Removal Request</text><polygon fill="#181818" points="208.4351,151.543,218.4351,155.543,208.4351,159.543,212.4351,155.543" style="stroke:#181818;stroke-width:1.0;"/><line style="stroke:#181818;stroke-width:1.0;" x1="27.7524" x2="214.4351" y1="155.543" y2="155.543"/><text fill="#000000" font-family="sans-serif" font-size="13" lengthAdjust="spacing" textLength="168.6826" x="34.7524" y="150.769">CLUSTER REMOVENODE R3</text><path d="M21,168.543 L21,193.543 L418,193.543 L418,178.543 L408,168.543 L21,168.543 " fill="#FEFFDD" style="stroke:#181818;stroke-width:0.5;"/><path d="M408,168.543 L408,178.543 L418,178.543 L408,168.543 " fill="#FEFFDD" style="stroke:#181818;stroke-width:0.5;"/><text fill="#000000" font-family="sans-serif" font-size="13" lengthAdjust="spacing" textLength="376.8096" x="27" y="185.8955">Validate request (node exists, not leader, quorum available)</text><rect fill="#EEEEEE" height="3" style="stroke:#EEEEEE;stroke-width:1.0;" width="1295.4126" x="0" y="219.2327"/><line style="stroke:#000000;stroke-width:1.0;" x1="0" x2="1295.4126" y1="219.2327" y2="219.2327"/><line style="stroke:#000000;stroke-width:1.0;" x1="0" x2="1295.4126" y1="222.2327" y2="222.2327"/><rect fill="#EEEEEE" height="23.1265" style="stroke:#000000;stroke-width:2.0;" width="264.8975" x="515.2576" y="208.6694"/><text fill="#000000" font-family="sans-serif" font-size="13" font-weight="bold" lengthAdjust="spacing" textLength="246.6128" x="521.2576" y="225.0537">Phase 1: Propose Joint Configuration</text><polygon fill="#181818" points="914.2241,274.0488,924.2241,278.0488,914.2241,282.0488,918.2241,278.0488" style="stroke:#181818;stroke-width:1.0;"/><line style="stroke:#181818;stroke-width:1.0;" x1="220.4351" x2="920.2241" y1="278.0488" y2="278.0488"/><text fill="#000000" font-family="sans-serif" font-size="13" lengthAdjust="spacing" textLength="143.4316" x="227.4351" y="258.1484">Propose config change</text><text fill="#000000" font-family="sans-serif" font-size="13" lengthAdjust="spacing" textLength="135.5923" x="227.4351" y="273.2749">(old + new minus R3)</text><polygon fill="#181818" points="422.249,303.1753,432.249,307.1753,422.249,311.1753,426.249,307.1753" style="stroke:#181818;stroke-width:1.0;"/><line style="stroke:#181818;stroke-width:1.0;" x1="220.4351" x2="428.249" y1="307.1753" y2="307.1753"/><text fill="#000000" font-family="sans-serif" font-size="13" lengthAdjust="spacing" textLength="189.814" x="227.4351" y="302.4014">Replicate config-change entry</text><polygon fill="#181818" points="507.9912,332.3018,517.9912,336.3018,507.9912,340.3018,511.9912,336.3018" style="stroke:#181818;stroke-width:1.0;"/><line style="stroke:#181818;stroke-width:1.0;" x1="220.4351" x2="513.9912" y1="336.3018" y2="336.3018"/><text fill="#000000" font-family="sans-serif" font-size="13" lengthAdjust="spacing" textLength="189.814" x="227.4351" y="331.5278">Replicate config-change entry</text><polygon fill="#181818" points="1015.998,361.4282,1025.998,365.4282,1015.998,369.4282,1019.998,365.4282" style="stroke:#181818;stroke-width:1.0;"/><line style="stroke:#181818;stroke-width:1.0;" x1="434.249" x2="1021.998" y1="365.4282" y2="365.4282"/><text fill="#000000" font-family="sans-serif" font-size="13" lengthAdjust="spacing" textLength="165.0137" x="441.249" y="360.6543">Write config-change entry</text><polygon fill="#181818" points="1122.9639,390.5547,1132.9639,394.5547,1122.9639,398.5547,1126.9639,394.5547" style="stroke:#181818;stroke-width:1.0;"/><line style="stroke:#181818;stroke-width:1.0;" x1="519.9912" x2="1128.9639" y1="394.5547" y2="394.5547"/><text fill="#000000" font-family="sans-serif" font-size="13" lengthAdjust="spacing" textLength="165.0137" x="526.9912" y="389.7808">Write config-change entry</text><polygon fill="#181818" points="231.4351,419.6812,221.4351,423.6812,231.4351,427.6812,227.4351,423.6812" style="stroke:#181818;stroke-width:1.0;"/><line style="stroke:#181818;stroke-width:1.0;stroke-dasharray:2.0,2.0;" x1="225.4351" x2="433.249" y1="423.6812" y2="423.6812"/><text fill="#000000" font-family="sans-serif" font-size="13" lengthAdjust="spacing" textLength="23.2261" x="237.4351" y="418.9072">Ack</text><polygon fill="#181818" points="231.4351,448.8076,221.4351,452.8076,231.4351,456.8076,227.4351,452.8076" style="stroke:#181818;stroke-width:1.0;"/><line style="stroke:#181818;stroke-width:1.0;stroke-dasharray:2.0,2.0;" x1="225.4351" x2="518.9912" y1="452.8076" y2="452.8076"/><text fill="#000000" font-family="sans-serif" font-size="13" lengthAdjust="spacing" textLength="23.2261" x="237.4351" y="448.0337">Ack</text><polygon fill="#181818" points="914.2241,477.9341,924.2241,481.9341,914.2241,485.9341,918.2241,481.9341" style="stroke:#181818;stroke-width:1.0;"/><line style="stroke:#181818;stroke-width:1.0;" x1="220.4351" x2="920.2241" y1="481.9341" y2="481.9341"/><text fill="#000000" font-family="sans-serif" font-size="13" lengthAdjust="spacing" textLength="168.0225" x="227.4351" y="477.1602">Commit new configuration</text><path d="M187,494.9341 L187,519.9341 L552,519.9341 L552,504.9341 L542,494.9341 L187,494.9341 " fill="#FEFFDD" style="stroke:#181818;stroke-width:0.5;"/><path d="M542,494.9341 L542,504.9341 L552,504.9341 L542,494.9341 " fill="#FEFFDD" style="stroke:#181818;stroke-width:0.5;"/><text fill="#000000" font-family="sans-serif" font-size="13" lengthAdjust="spacing" textLength="246.7588" x="241.6738" y="512.2866">Cluster committed config excluding R3</text><rect fill="#EEEEEE" height="3" style="stroke:#EEEEEE;stroke-width:1.0;" width="1295.4126" x="0" y="545.6238"/><line style="stroke:#000000;stroke-width:1.0;" x1="0" x2="1295.4126" y1="545.6238" y2="545.6238"/><line style="stroke:#000000;stroke-width:1.0;" x1="0" x2="1295.4126" y1="548.6238" y2="548.6238"/><rect fill="#EEEEEE" height="23.1265" style="stroke:#000000;stroke-width:2.0;" width="198.1772" x="548.6177" y="535.0605"/><text fill="#000000" font-family="sans-serif" font-size="13" font-weight="bold" lengthAdjust="spacing" textLength="179.8926" x="554.6177" y="551.4448">Phase 2: Notify and Detach</text><polygon fill="#181818" points="649.6821,600.4399,659.6821,604.4399,649.6821,608.4399,653.6821,604.4399" style="stroke:#181818;stroke-width:1.0;"/><line style="stroke:#181818;stroke-width:1.0;" x1="220.4351" x2="655.6821" y1="604.4399" y2="604.4399"/><text fill="#000000" font-family="sans-serif" font-size="13" lengthAdjust="spacing" textLength="156.6729" x="227.4351" y="584.5396">CLUSTER FORGET &lt;self&gt;</text><text fill="#000000" font-family="sans-serif" font-size="13" lengthAdjust="spacing" textLength="106.9961" x="227.4351" y="599.666">(stop replication)</text><polygon fill="#181818" points="1229.9297,629.5664,1239.9297,633.5664,1229.9297,637.5664,1233.9297,633.5664" style="stroke:#181818;stroke-width:1.0;"/><line style="stroke:#181818;stroke-width:1.0;" x1="661.6821" x2="1235.9297" y1="633.5664" y2="633.5664"/><text fill="#000000" font-family="sans-serif" font-size="13" lengthAdjust="spacing" textLength="177.6201" x="668.6821" y="628.7925">Flush and close Raft session</text><line style="stroke:#181818;stroke-width:1.0;" x1="661.6821" x2="703.6821" y1="662.6929" y2="662.6929"/><line style="stroke:#181818;stroke-width:1.0;" x1="703.6821" x2="703.6821" y1="662.6929" y2="675.6929"/><line style="stroke:#181818;stroke-width:1.0;" x1="662.6821" x2="703.6821" y1="675.6929" y2="675.6929"/><polygon fill="#181818" points="672.6821,671.6929,662.6821,675.6929,672.6821,679.6929,668.6821,675.6929" style="stroke:#181818;stroke-width:1.0;"/><text fill="#000000" font-family="sans-serif" font-size="13" lengthAdjust="spacing" textLength="250.542" x="668.6821" y="657.9189">Transition to standalone (non-member)</text><path d="M554,688.6929 L554,728.6929 L768,728.6929 L768,698.6929 L758,688.6929 L554,688.6929 " fill="#FEFFDD" style="stroke:#181818;stroke-width:0.5;"/><path d="M758,688.6929 L758,698.6929 L768,698.6929 L758,688.6929 " fill="#FEFFDD" style="stroke:#181818;stroke-width:0.5;"/><text fill="#000000" font-family="sans-serif" font-size="13" lengthAdjust="spacing" textLength="193.502" x="560" y="706.0454">Node R3 removed from cluster</text><text fill="#000000" font-family="sans-serif" font-size="13" lengthAdjust="spacing" textLength="179.5815" x="560" y="721.1719">and can be safely shut down</text><rect fill="#EEEEEE" height="3" style="stroke:#EEEEEE;stroke-width:1.0;" width="1295.4126" x="0" y="754.509"/><line style="stroke:#000000;stroke-width:1.0;" x1="0" x2="1295.4126" y1="754.509" y2="754.509"/><line style="stroke:#000000;stroke-width:1.0;" x1="0" x2="1295.4126" y1="757.509" y2="757.509"/><rect fill="#EEEEEE" height="23.1265" style="stroke:#000000;stroke-width:2.0;" width="265.6211" x="514.8958" y="743.9458"/><text fill="#000000" font-family="sans-serif" font-size="13" font-weight="bold" lengthAdjust="spacing" textLength="247.3364" x="520.8958" y="760.3301">Phase 3: Continue normal operations</text><!--SRC=[XLFBRjim4BphAnOvsQXri7GpuW25unGeN5jGtVIIovfQsKGfKY6f9FxxBaK_LC1jJn8niykPsIKARomib2JjanQjbqAsg3tS5LOsQ8ztW0wAFw6IMYK5mhG7o-bjD8jeTXlDOUGDx0WiDUQDgd5avqc57dVewA80LcOVLQm6u4N31Iwdj_3iYcUtyFoAvwiacS-X389GyVUr8-TXFazYFf0-G363nUh7z-soX7BvRVEyN6yUbq6sDfw0ZTX0UKOb-QfWBlOOQLCHq8Tqtas0kQ08Ax8JUEsCxHh0DvGATuh6lORY44HEPr1Oqnh-_Mea2rWONSjzPz5BeuEmejUqkl94pm1nGBsd5pqoge9FeEaT6gcxO78SYqfkVih0dylIM0RirHvFjEn_D8uTxjE-tqyh_qRA8Ydx9saAQOpui_Z59SFJnUZ2D8tqlICnJ6CuW4cuPw4wv_aa-W9FrJaR-X2ggwJUXx5Tm-QIjV6oFWBg2Xx9epXS8YxpwzoVDkMNvHRk7QdwWIDsthGyw9WHAnadPHvhMEuJgpZq7OKAyocnzk38kI3vp9l1rg9sifyglmhdkG2LqHGMHwSDDJkouu75KBCEAyKjJWy8QciQlgLt_QBxAr675-Qm9dK4T-WyLEPT3qm7MqPxNWtYhRGDhxrfAIRgsFrl]--></g></svg>