<svg xmlns="http://www.w3.org/2000/svg" xmlns:xlink="http://www.w3.org/1999/xlink" contentStyleType="text/css" height="891px" preserveAspectRatio="none" style="width:1047px;height:891px;background:#FFFFFF;" version="1.1" viewBox="0 0 1047 891" width="1047px" zoomAndPan="magnify"><defs/><g><line style="stroke:#181818;stroke-width:0.5;stroke-dasharray:5.0,5.0;" x1="27" x2="27" y1="81.29" y2="811.1987"/><line style="stroke:#181818;stroke-width:0.5;stroke-dasharray:5.0,5.0;" x1="219.1602" x2="219.1602" y1="81.29" y2="811.1987"/><line style="stroke:#181818;stroke-width:0.5;stroke-dasharray:5.0,5.0;" x1="490.3184" x2="490.3184" y1="81.29" y2="811.1987"/><line style="stroke:#181818;stroke-width:0.5;stroke-dasharray:5.0,5.0;" x1="639.2578" x2="639.2578" y1="81.29" y2="811.1987"/><line style="stroke:#181818;stroke-width:0.5;stroke-dasharray:5.0,5.0;" x1="788.7773" x2="788.7773" y1="81.29" y2="811.1987"/><line style="stroke:#181818;stroke-width:0.5;stroke-dasharray:5.0,5.0;" x1="890.3594" x2="890.3594" y1="81.29" y2="811.1987"/><line style="stroke:#181818;stroke-width:0.5;stroke-dasharray:5.0,5.0;" x1="997.3252" x2="997.3252" y1="81.29" y2="811.1987"/><text fill="#000000" font-family="sans-serif" font-size="14" lengthAdjust="spacing" textLength="39.5049" x="5" y="78.3027">Client</text><ellipse cx="27.7524" cy="13.5" fill="#E2E2F0" rx="8" ry="8" style="stroke:#181818;stroke-width:0.5;"/><path d="M27.7524,21.5 L27.7524,48.5 M14.7524,29.5 L40.7524,29.5 M27.7524,48.5 L14.7524,63.5 M27.7524,48.5 L40.7524,63.5 " fill="none" style="stroke:#181818;stroke-width:0.5;"/><text fill="#000000" font-family="sans-serif" font-size="14" lengthAdjust="spacing" textLength="39.5049" x="5" y="823.5015">Client</text><ellipse cx="27.7524" cy="834.9888" fill="#E2E2F0" rx="8" ry="8" style="stroke:#181818;stroke-width:0.5;"/><path d="M27.7524,842.9888 L27.7524,869.9888 M14.7524,850.9888 L40.7524,850.9888 M27.7524,869.9888 L14.7524,884.9888 M27.7524,869.9888 L40.7524,884.9888 " fill="none" style="stroke:#181818;stroke-width:0.5;"/><rect fill="#E2E2F0" height="30.29" rx="2.5" ry="2.5" style="stroke:#181818;stroke-width:0.5;" width="65.3584" x="187.1602" y="50"/><text fill="#000000" font-family="sans-serif" font-size="14" lengthAdjust="spacing" textLength="51.3584" x="194.1602" y="70.3027">Primary</text><rect fill="#E2E2F0" height="30.29" rx="2.5" ry="2.5" style="stroke:#181818;stroke-width:0.5;" width="65.3584" x="187.1602" y="810.1987"/><text fill="#000000" font-family="sans-serif" font-size="14" lengthAdjust="spacing" textLength="51.3584" x="194.1602" y="830.5015">Primary</text><rect fill="#E2E2F0" height="30.29" rx="2.5" ry="2.5" style="stroke:#181818;stroke-width:0.5;" width="75.7422" x="453.3184" y="50"/><text fill="#000000" font-family="sans-serif" font-size="14" lengthAdjust="spacing" textLength="61.7422" x="460.3184" y="70.3027">Replica 1</text><rect fill="#E2E2F0" height="30.29" rx="2.5" ry="2.5" style="stroke:#181818;stroke-width:0.5;" width="75.7422" x="453.3184" y="810.1987"/><text fill="#000000" font-family="sans-serif" font-size="14" lengthAdjust="spacing" textLength="61.7422" x="460.3184" y="830.5015">Replica 1</text><rect fill="#E2E2F0" height="30.29" rx="2.5" ry="2.5" style="stroke:#181818;stroke-width:0.5;" width="75.7422" x="602.2578" y="50"/><text fill="#000000" font-family="sans-serif" font-size="14" lengthAdjust="spacing" textLength="61.7422" x="609.2578" y="70.3027">Replica 2</text><rect fill="#E2E2F0" height="30.29" rx="2.5" ry="2.5" style="stroke:#181818;stroke-width:0.5;" width="75.7422" x="602.2578" y="810.1987"/><text fill="#000000" font-family="sans-serif" font-size="14" lengthAdjust="spacing" textLength="61.7422" x="609.2578" y="830.5015">Replica 2</text><text fill="#000000" font-family="sans-serif" font-size="14" lengthAdjust="spacing" textLength="80.582" x="745.7773" y="78.3027">Primary Log</text><path d="M771.0684,29 C771.0684,19 789.0684,19 789.0684,19 C789.0684,19 807.0684,19 807.0684,29 L807.0684,55 C807.0684,65 789.0684,65 789.0684,65 C789.0684,65 771.0684,65 771.0684,55 L771.0684,29 " fill="#E2E2F0" style="stroke:#181818;stroke-width:1.5;"/><path d="M771.0684,29 C771.0684,39 789.0684,39 789.0684,39 C789.0684,39 807.0684,39 807.0684,29 " fill="none" style="stroke:#181818;stroke-width:1.5;"/><text fill="#000000" font-family="sans-serif" font-size="14" lengthAdjust="spacing" textLength="80.582" x="745.7773" y="823.5015">Primary Log</text><path d="M771.0684,836.4888 C771.0684,826.4888 789.0684,826.4888 789.0684,826.4888 C789.0684,826.4888 807.0684,826.4888 807.0684,836.4888 L807.0684,862.4888 C807.0684,872.4888 789.0684,872.4888 789.0684,872.4888 C789.0684,872.4888 771.0684,872.4888 771.0684,862.4888 L771.0684,836.4888 " fill="#E2E2F0" style="stroke:#181818;stroke-width:1.5;"/><path d="M771.0684,836.4888 C771.0684,846.4888 789.0684,846.4888 789.0684,846.4888 C789.0684,846.4888 807.0684,846.4888 807.0684,836.4888 " fill="none" style="stroke:#181818;stroke-width:1.5;"/><text fill="#000000" font-family="sans-serif" font-size="14" lengthAdjust="spacing" textLength="90.9658" x="842.3594" y="78.3027">Replica 1 Log</text><path d="M872.8423,29 C872.8423,19 890.8423,19 890.8423,19 C890.8423,19 908.8423,19 908.8423,29 L908.8423,55 C908.8423,65 890.8423,65 890.8423,65 C890.8423,65 872.8423,65 872.8423,55 L872.8423,29 " fill="#E2E2F0" style="stroke:#181818;stroke-width:1.5;"/><path d="M872.8423,29 C872.8423,39 890.8423,39 890.8423,39 C890.8423,39 908.8423,39 908.8423,29 " fill="none" style="stroke:#181818;stroke-width:1.5;"/><text fill="#000000" font-family="sans-serif" font-size="14" lengthAdjust="spacing" textLength="90.9658" x="842.3594" y="823.5015">Replica 1 Log</text><path d="M872.8423,836.4888 C872.8423,826.4888 890.8423,826.4888 890.8423,826.4888 C890.8423,826.4888 908.8423,826.4888 908.8423,836.4888 L908.8423,862.4888 C908.8423,872.4888 890.8423,872.4888 890.8423,872.4888 C890.8423,872.4888 872.8423,872.4888 872.8423,862.4888 L872.8423,836.4888 " fill="#E2E2F0" style="stroke:#181818;stroke-width:1.5;"/><path d="M872.8423,836.4888 C872.8423,846.4888 890.8423,846.4888 890.8423,846.4888 C890.8423,846.4888 908.8423,846.4888 908.8423,836.4888 " fill="none" style="stroke:#181818;stroke-width:1.5;"/><text fill="#000000" font-family="sans-serif" font-size="14" lengthAdjust="spacing" textLength="90.9658" x="949.3252" y="78.3027">Replica 2 Log</text><path d="M979.8081,29 C979.8081,19 997.8081,19 997.8081,19 C997.8081,19 1015.8081,19 1015.8081,29 L1015.8081,55 C1015.8081,65 997.8081,65 997.8081,65 C997.8081,65 979.8081,65 979.8081,55 L979.8081,29 " fill="#E2E2F0" style="stroke:#181818;stroke-width:1.5;"/><path d="M979.8081,29 C979.8081,39 997.8081,39 997.8081,39 C997.8081,39 1015.8081,39 1015.8081,29 " fill="none" style="stroke:#181818;stroke-width:1.5;"/><text fill="#000000" font-family="sans-serif" font-size="14" lengthAdjust="spacing" textLength="90.9658" x="949.3252" y="823.5015">Replica 2 Log</text><path d="M979.8081,836.4888 C979.8081,826.4888 997.8081,826.4888 997.8081,826.4888 C997.8081,826.4888 1015.8081,826.4888 1015.8081,836.4888 L1015.8081,862.4888 C1015.8081,872.4888 997.8081,872.4888 997.8081,872.4888 C997.8081,872.4888 979.8081,872.4888 979.8081,862.4888 L979.8081,836.4888 " fill="#E2E2F0" style="stroke:#181818;stroke-width:1.5;"/><path d="M979.8081,836.4888 C979.8081,846.4888 997.8081,846.4888 997.8081,846.4888 C997.8081,846.4888 1015.8081,846.4888 1015.8081,836.4888 " fill="none" style="stroke:#181818;stroke-width:1.5;"/><polygon fill="#181818" points="207.8394,108.4165,217.8394,112.4165,207.8394,116.4165,211.8394,112.4165" style="stroke:#181818;stroke-width:1.0;"/><line style="stroke:#181818;stroke-width:1.0;" x1="27.7524" x2="213.8394" y1="112.4165" y2="112.4165"/><text fill="#000000" font-family="sans-serif" font-size="13" font-weight="bold" lengthAdjust="spacing" textLength="8.5757" x="34.7524" y="107.6743">1</text><text fill="#000000" font-family="sans-serif" font-size="13" lengthAdjust="spacing" textLength="155.5112" x="47.3281" y="107.6426">Write operation on key K</text><line style="stroke:#181818;stroke-width:1.0;" x1="219.8394" x2="261.8394" y1="141.543" y2="141.543"/><line style="stroke:#181818;stroke-width:1.0;" x1="261.8394" x2="261.8394" y1="141.543" y2="154.543"/><line style="stroke:#181818;stroke-width:1.0;" x1="220.8394" x2="261.8394" y1="154.543" y2="154.543"/><polygon fill="#181818" points="230.8394,150.543,220.8394,154.543,230.8394,158.543,226.8394,154.543" style="stroke:#181818;stroke-width:1.0;"/><text fill="#000000" font-family="sans-serif" font-size="13" font-weight="bold" lengthAdjust="spacing" textLength="8.5757" x="226.8394" y="136.8008">2</text><text fill="#000000" font-family="sans-serif" font-size="13" lengthAdjust="spacing" textLength="113.7881" x="239.415" y="136.769">Execute operation</text><path d="M224,167.543 L224,222.543 L449,222.543 L449,177.543 L439,167.543 L224,167.543 " fill="#FEFFDD" style="stroke:#181818;stroke-width:0.5;"/><path d="M439,167.543 L439,177.543 L449,177.543 L439,167.543 " fill="#FEFFDD" style="stroke:#181818;stroke-width:0.5;"/><text fill="#000000" font-family="sans-serif" font-size="13" lengthAdjust="spacing" textLength="184.647" x="230" y="184.8955">Add response to client buffer</text><text fill="#000000" font-family="sans-serif" font-size="13" lengthAdjust="spacing" textLength="183.4663" x="230" y="200.022">Block the client write handler</text><text fill="#000000" font-family="sans-serif" font-size="13" lengthAdjust="spacing" textLength="204.4897" x="230" y="215.1484">until replication offset reaches X</text><polygon fill="#181818" points="777.0684,245.0488,787.0684,249.0488,777.0684,253.0488,781.0684,249.0488" style="stroke:#181818;stroke-width:1.0;"/><line style="stroke:#181818;stroke-width:1.0;" x1="219.8394" x2="783.0684" y1="249.0488" y2="249.0488"/><text fill="#000000" font-family="sans-serif" font-size="13" font-weight="bold" lengthAdjust="spacing" textLength="8.5757" x="226.8394" y="244.3066">3</text><text fill="#000000" font-family="sans-serif" font-size="13" lengthAdjust="spacing" textLength="137.6934" x="239.415" y="244.2749">Durably log operation</text><line style="stroke:#181818;stroke-width:1.0;" x1="219.8394" x2="261.8394" y1="278.1753" y2="278.1753"/><line style="stroke:#181818;stroke-width:1.0;" x1="261.8394" x2="261.8394" y1="278.1753" y2="291.1753"/><line style="stroke:#181818;stroke-width:1.0;" x1="220.8394" x2="261.8394" y1="291.1753" y2="291.1753"/><polygon fill="#181818" points="230.8394,287.1753,220.8394,291.1753,230.8394,295.1753,226.8394,291.1753" style="stroke:#181818;stroke-width:1.0;"/><text fill="#000000" font-family="sans-serif" font-size="13" font-weight="bold" lengthAdjust="spacing" textLength="8.5757" x="226.8394" y="273.4331">4</text><text fill="#000000" font-family="sans-serif" font-size="13" lengthAdjust="spacing" textLength="141.8193" x="239.415" y="273.4014">Add to durable stream</text><path d="M224,304.1753 L224,329.1753 L442,329.1753 L442,314.1753 L432,304.1753 L224,304.1753 " fill="#FEFFDD" style="stroke:#181818;stroke-width:0.5;"/><path d="M432,304.1753 L432,314.1753 L442,314.1753 L432,304.1753 " fill="#FEFFDD" style="stroke:#181818;stroke-width:0.5;"/><text fill="#000000" font-family="sans-serif" font-size="13" lengthAdjust="spacing" textLength="197.1836" x="230" y="321.5278">After certain period/operations</text><polygon fill="#181818" points="479.1895,351.4282,489.1895,355.4282,479.1895,359.4282,483.1895,355.4282" style="stroke:#181818;stroke-width:1.0;"/><line style="stroke:#181818;stroke-width:1.0;" x1="219.8394" x2="485.1895" y1="355.4282" y2="355.4282"/><text fill="#000000" font-family="sans-serif" font-size="13" font-weight="bold" lengthAdjust="spacing" textLength="8.5757" x="226.8394" y="350.686">5</text><text fill="#000000" font-family="sans-serif" font-size="13" lengthAdjust="spacing" textLength="128.4258" x="239.415" y="350.6543">Replicate operations</text><polygon fill="#181818" points="628.1289,380.5547,638.1289,384.5547,628.1289,388.5547,632.1289,384.5547" style="stroke:#181818;stroke-width:1.0;"/><line style="stroke:#181818;stroke-width:1.0;" x1="219.8394" x2="634.1289" y1="384.5547" y2="384.5547"/><text fill="#000000" font-family="sans-serif" font-size="13" font-weight="bold" lengthAdjust="spacing" textLength="8.5757" x="226.8394" y="379.8125">6</text><text fill="#000000" font-family="sans-serif" font-size="13" lengthAdjust="spacing" textLength="128.4258" x="239.415" y="379.7808">Replicate operations</text><polygon fill="#181818" points="878.8423,409.6812,888.8423,413.6812,878.8423,417.6812,882.8423,413.6812" style="stroke:#181818;stroke-width:1.0;"/><line style="stroke:#181818;stroke-width:1.0;" x1="491.1895" x2="884.8423" y1="413.6812" y2="413.6812"/><text fill="#000000" font-family="sans-serif" font-size="13" font-weight="bold" lengthAdjust="spacing" textLength="8.5757" x="498.1895" y="408.939">7</text><text fill="#000000" font-family="sans-serif" font-size="13" lengthAdjust="spacing" textLength="137.6934" x="510.7651" y="408.9072">Durably log operation</text><polygon fill="#181818" points="985.8081,438.8076,995.8081,442.8076,985.8081,446.8076,989.8081,442.8076" style="stroke:#181818;stroke-width:1.0;"/><line style="stroke:#181818;stroke-width:1.0;" x1="640.1289" x2="991.8081" y1="442.8076" y2="442.8076"/><text fill="#000000" font-family="sans-serif" font-size="13" font-weight="bold" lengthAdjust="spacing" textLength="8.5757" x="647.1289" y="438.0654">8</text><text fill="#000000" font-family="sans-serif" font-size="13" lengthAdjust="spacing" textLength="137.6934" x="659.7046" y="438.0337">Durably log operation</text><polygon fill="#181818" points="230.8394,467.9341,220.8394,471.9341,230.8394,475.9341,226.8394,471.9341" style="stroke:#181818;stroke-width:1.0;"/><line style="stroke:#181818;stroke-width:1.0;" x1="224.8394" x2="490.1895" y1="471.9341" y2="471.9341"/><text fill="#000000" font-family="sans-serif" font-size="13" font-weight="bold" lengthAdjust="spacing" textLength="8.5757" x="236.8394" y="467.1919">9</text><text fill="#000000" font-family="sans-serif" font-size="13" lengthAdjust="spacing" textLength="220.7207" x="249.415" y="467.1602">Ack the durable write upto offset X</text><polygon fill="#181818" points="230.8394,497.0605,220.8394,501.0605,230.8394,505.0605,226.8394,501.0605" style="stroke:#181818;stroke-width:1.0;"/><line style="stroke:#181818;stroke-width:1.0;" x1="224.8394" x2="639.1289" y1="501.0605" y2="501.0605"/><text fill="#000000" font-family="sans-serif" font-size="13" font-weight="bold" lengthAdjust="spacing" textLength="17.1514" x="236.8394" y="496.3184">10</text><text fill="#000000" font-family="sans-serif" font-size="13" lengthAdjust="spacing" textLength="220.7207" x="257.9907" y="496.2866">Ack the durable write upto offset X</text><path d="M224,514.0605 L224,554.0605 L350,554.0605 L350,524.0605 L340,514.0605 L224,514.0605 " fill="#FEFFDD" style="stroke:#181818;stroke-width:0.5;"/><path d="M340,514.0605 L340,524.0605 L350,524.0605 L340,514.0605 " fill="#FEFFDD" style="stroke:#181818;stroke-width:0.5;"/><text fill="#000000" font-family="sans-serif" font-size="13" lengthAdjust="spacing" textLength="105.6821" x="230" y="531.4131">Quorum reached</text><text fill="#000000" font-family="sans-serif" font-size="13" lengthAdjust="spacing" textLength="81.7388" x="230" y="546.5396">upto offset X</text><polygon fill="#181818" points="38.7524,576.4399,28.7524,580.4399,38.7524,584.4399,34.7524,580.4399" style="stroke:#181818;stroke-width:1.0;"/><line style="stroke:#181818;stroke-width:1.0;" x1="32.7524" x2="218.8394" y1="580.4399" y2="580.4399"/><text fill="#000000" font-family="sans-serif" font-size="13" font-weight="bold" lengthAdjust="spacing" textLength="17.1514" x="44.7524" y="575.6978">11</text><text fill="#000000" font-family="sans-serif" font-size="13" lengthAdjust="spacing" textLength="93.7104" x="65.9038" y="575.666">Write response</text><polygon fill="#181818" points="479.1895,605.5664,489.1895,609.5664,479.1895,613.5664,483.1895,609.5664" style="stroke:#181818;stroke-width:1.0;"/><line style="stroke:#181818;stroke-width:1.0;" x1="219.8394" x2="485.1895" y1="609.5664" y2="609.5664"/><text fill="#000000" font-family="sans-serif" font-size="13" font-weight="bold" lengthAdjust="spacing" textLength="17.1514" x="226.8394" y="604.8242">12</text><text fill="#000000" font-family="sans-serif" font-size="13" lengthAdjust="spacing" textLength="226.1987" x="247.9907" y="604.7925">Ack the commit of operation upto X</text><line style="stroke:#181818;stroke-width:1.0;" x1="491.1895" x2="533.1895" y1="638.6929" y2="638.6929"/><line style="stroke:#181818;stroke-width:1.0;" x1="533.1895" x2="533.1895" y1="638.6929" y2="651.6929"/><line style="stroke:#181818;stroke-width:1.0;" x1="492.1895" x2="533.1895" y1="651.6929" y2="651.6929"/><polygon fill="#181818" points="502.1895,647.6929,492.1895,651.6929,502.1895,655.6929,498.1895,651.6929" style="stroke:#181818;stroke-width:1.0;"/><text fill="#000000" font-family="sans-serif" font-size="13" font-weight="bold" lengthAdjust="spacing" textLength="17.1514" x="498.1895" y="633.9507">13</text><text fill="#000000" font-family="sans-serif" font-size="13" lengthAdjust="spacing" textLength="113.7881" x="519.3408" y="633.9189">Execute operation</text><path d="M187,664.6929 L187,689.6929 L523,689.6929 L523,674.6929 L513,664.6929 L187,664.6929 " fill="#FEFFDD" style="stroke:#181818;stroke-width:0.5;"/><path d="M513,664.6929 L513,674.6929 L523,674.6929 L513,664.6929 " fill="#FEFFDD" style="stroke:#181818;stroke-width:0.5;"/><text fill="#000000" font-family="sans-serif" font-size="13" lengthAdjust="spacing" textLength="250.7197" x="225.5903" y="682.0454">Same view across Primary and Replica 1</text><polygon fill="#181818" points="628.1289,711.9458,638.1289,715.9458,628.1289,719.9458,632.1289,715.9458" style="stroke:#181818;stroke-width:1.0;"/><line style="stroke:#181818;stroke-width:1.0;" x1="219.8394" x2="634.1289" y1="715.9458" y2="715.9458"/><text fill="#000000" font-family="sans-serif" font-size="13" font-weight="bold" lengthAdjust="spacing" textLength="17.1514" x="226.8394" y="711.2036">14</text><text fill="#000000" font-family="sans-serif" font-size="13" lengthAdjust="spacing" textLength="226.1987" x="247.9907" y="711.1719">Ack the commit of operation upto X</text><line style="stroke:#181818;stroke-width:1.0;" x1="640.1289" x2="682.1289" y1="745.0723" y2="745.0723"/><line style="stroke:#181818;stroke-width:1.0;" x1="682.1289" x2="682.1289" y1="745.0723" y2="758.0723"/><line style="stroke:#181818;stroke-width:1.0;" x1="641.1289" x2="682.1289" y1="758.0723" y2="758.0723"/><polygon fill="#181818" points="651.1289,754.0723,641.1289,758.0723,651.1289,762.0723,647.1289,758.0723" style="stroke:#181818;stroke-width:1.0;"/><text fill="#000000" font-family="sans-serif" font-size="13" font-weight="bold" lengthAdjust="spacing" textLength="17.1514" x="647.1289" y="740.3301">15</text><text fill="#000000" font-family="sans-serif" font-size="13" lengthAdjust="spacing" textLength="113.7881" x="668.2803" y="740.2983">Execute operation</text><path d="M187,771.0723 L187,796.0723 L672,796.0723 L672,781.0723 L662,771.0723 L187,771.0723 " fill="#FEFFDD" style="stroke:#181818;stroke-width:0.5;"/><path d="M662,771.0723 L662,781.0723 L672,781.0723 L662,771.0723 " fill="#FEFFDD" style="stroke:#181818;stroke-width:0.5;"/><text fill="#000000" font-family="sans-serif" font-size="13" lengthAdjust="spacing" textLength="270.3086" x="290.2656" y="788.4248">All the nodes have the same view for key K</text><!--SRC=[ZLGzRzim4DtvAmwPMnJIwA50adQA1rKTulLCdYmY52dmmud_VI-aA3k1ZGRG8ht7T-_U7OKoEW-FHfEDOaOVjTGpsWXtdTSJ-jCTO83k8zJJRBH4Q3BODzVHjg2jK1XnZu5MJTYwGz7TNe2hwWhtpJMyFUFjLWXCqTaqxScBqWPy_mdT1fwzZWHk9ezHEmlylD09daIt47w_aKoN526iutUl3sC4Dt3Nzqg1fp0xomQY0raAxDCmSBa7u-GBn97gzzTSSaIh37aGoKPj-7osNJmCGw38dr2E560do2fuBoeMLziD_4eUz-O4nXqkh5NJxuxOYCeaWX1PQ_hicsb3P0UIV4HjWLMqKpzMjL3a-cO3IwYNCLIqlO7sJJbyqslVblEt2KtjPicljbC2J3Dtk4IrMzI-IFuym3_9-JGjWIlnaRo6d_ijorFtfawz9WNd-j9Dayxwv-NAmhircclBbQsv8u-b-vOfVt4YE6fw1PJU1RuDo-tW_O7rCjHXVD50MqVtFmDCkJScwrcdU1b7F59-3QklWNyD-Sxy0m00]--></g></svg>